<svg xmlns="http://www.w3.org/2000/svg" width="1080" height="1080"><path d="m242.75 108.688 3.447.017c29.404.422 55.095 12.958 75.717 33.721 21.206 22.192 28.819 50.51 28.402 80.582-.404 12.558-3.36 23.85-8.46 35.293-.996 3.14-.945 4.608.144 7.699 1.49 2.224 1.49 2.224 3.438 4.375C365.224 294.309 378.329 323.471 390 352l3.125-.5c24.232-2.89 45.823 3.987 64.887 18.848 16.195 13.891 25.916 33.79 27.59 54.953.409 6.053.345 11.212-.852 17.199-.728 7.386 3.282 11.633 7.73 17.063a475.157 475.157 0 0 0 3.712 4.342c2.705 3.134 5.287 6.361 7.87 9.595l1.479 1.835c11.52 14.392 21.275 29.777 30.022 45.978l1.051 1.941C539 527.755 539 527.755 539 530h2l.691-2.414c1.67-4.577 3.892-8.703 6.246-12.961l1.475-2.668c7-12.466 15.323-23.894 24.147-35.122 2.287-2.913 4.56-5.838 6.834-8.761 1.202-1.545 2.406-3.09 3.61-4.632a415.287 415.287 0 0 0 3.351-4.356C589 457 589 457 590.751 455.15c5.43-6.055 4.797-11.78 4.374-19.589C594.576 413.9 599.498 395.621 614 379l2.336-2.934C628.924 360.98 648.95 353.194 668 351c2.499-.09 5-.13 7.5-.125l3.781-.008c3.672.131 7.099.545 10.719 1.133l.867-1.993c12.471-28.63 25.231-55.561 44.25-80.51 2.968-3.44 2.968-3.44 3.692-7.645-1.317-4.645-2.93-9.184-4.55-13.73-8.874-25.766-5.746-54.746 5.741-79.122 13.187-26.353 34.861-45.18 62.41-55.246 11.324-3.685 22.456-5.129 34.34-5.067l3.447.018c29.404.422 55.095 12.958 75.717 33.721 21.205 22.19 28.828 50.517 28.399 80.59-.78 24.102-11.206 47.215-27.313 64.984l-1.327 1.476c-17.6 19.333-42.579 32.006-68.818 33.73-3.205.096-6.4.123-9.605.106l-3.447-.017c-20.313-.291-37.289-6.36-54.803-16.295a230.423 230.423 0 0 0-4-2c-11.325 14.914-21.263 30.328-29.938 46.938l-1.61 3.083c-3.515 6.855-6.59 13.827-9.452 20.979l1.469 1.66c3.726 4.407 6.684 8.457 8.978 13.783 4.213 9.387 9.646 12.932 18.946 16.784 2.98 1.234 5.91 2.572 8.847 3.904a682.94 682.94 0 0 0 4.45 1.997c6.497 2.895 12.711 6.193 18.872 9.747l2.785 1.605c2.56 1.492 5.11 3 7.653 4.52l2.321 1.382c8.972 5.376 17.403 11.21 25.679 17.618 2.244 1.695 4.497 3.379 6.75 5.063L846 458c3.225-1.448 6.029-3.359 8.922-5.376 18.984-13.168 39.603-20.058 62.828-19.937l3.447.018c29.404.422 55.095 12.958 75.717 33.721 21.205 22.19 28.828 50.517 28.399 80.59-.78 24.102-11.206 47.215-27.313 64.984l-1.327 1.476c-17.6 19.333-42.579 32.006-68.818 33.73-3.205.096-6.4.123-9.605.106l-3.447-.017c-29.404-.422-55.095-12.958-75.717-33.721-19.082-19.97-28.55-46.434-28.274-73.824l.002-3.719c.049-9.867.049-9.867 1.006-14.066.507-3.118.507-3.118-1.785-5.633l-2.972-2.52-1.637-1.4A240.44 240.44 0 0 0 800 508l-1.853-1.49C781.737 493.42 763.659 483.49 745 474l-1.672 2.133C728.205 494.758 710.554 508.983 686 512c-22.817 1.396-39.503-3.255-59-15-41.004 51.029-55.014 122.621-55.203 186.773l-.021 4.445c-.02 4.719-.024 9.438-.026 14.157l-.002 2.436c-.013 24.786.346 49.415 3.024 74.082.23 2.124.449 4.248.666 6.372C580.314 832.218 595.63 886.511 630 921l2.223 2.293c33.091 32.097 91.55 35.568 134.836 38.386 10.698.704 21.292 1.495 31.879 3.259l2.698.44c13.807 2.53 26.709 8.201 35.759 19.247 3.34 4.94 4.867 9.332 4.351 15.324-2.204 10.828-8.642 19.826-17.746 26.051-29.188 14.408-75.508 6.278-107.463 6.2-4.943-.01-9.885-.015-14.827-.015-32.862.003-65.71-.23-98.568-.793-19.595-.336-39.182-.553-58.78-.522-3.64.005-7.28.002-10.92-.004-19.539-.025-39.068.226-58.604.56-32.883.563-65.757.762-98.644.76-4.958 0-9.916.008-14.874.02-54.385.129-54.385.129-77.687-1.03l-2.3-.105c-13.08-.626-23.52-2.205-33.02-11.77-6.604-7.347-9.825-14.417-9.72-24.352.998-7.243 5.772-13.178 11.43-17.578 19.506-13.53 42.578-14.373 65.602-15.871 45.537-2.992 96.167-8.022 132.375-38.5l1.977-1.629C462.5 910.005 470.384 892.761 478 878l1.176-2.27c36.886-72.065 36.754-176.178 10.644-306.229-4.607-14.053-9.757-27.497-16.82-40.501l-1.066-2.006c-4.419-8.301-9.188-16.125-14.836-23.655C454 499.19 454 499.19 454 497l-2.938 1.793c-20.175 12.005-42.764 17.051-66.062 11.644-20.7-5.316-37.424-18.784-49-36.437-38.76 17.088-38.76 17.088-68 46 .309 2.004.646 4.004 1 6 1.913 32.051-4.626 59.644-25.734 84.45-15.532 17.486-35.3 29.536-58.266 34.55l-3.082.676c-28.438 5.258-57.732-1.512-81.64-17.496-2.177-1.65-4.233-3.37-6.278-5.18l-2.477-2.117C71.547 603.44 58.841 580.265 55 554c-.932-15.616-.773-31.017 4-46l1.098-3.453C64.81 491.32 71.478 479.34 81 469l1.507-1.668c17.612-19.311 42.307-32.728 68.71-34.555 28.545-.965 57.065 4.095 78.818 24.168 1.95 1.317 1.95 1.317 4.29.575 3.456-1.963 6.4-4.405 9.425-6.957 17.947-14.695 38.638-25.672 59.125-36.375l3.208-1.684c4.47-2.318 8.903-4.57 13.589-6.422 8.389-3.324 12.107-6.469 15.84-14.852 1.824-3.96 4.221-7.006 7.008-10.328 2.137-2.733 2.137-2.733 3.48-5.902-.945-3.162-.945-3.162-2.7-6.54l-.926-1.92a513.3 513.3 0 0 0-3.062-6.165l-2.102-4.254C323.5 328.527 323.5 328.527 304 305l-2.938 1.758c-25.571 15.022-53.987 20.9-83.402 14.281-28.857-8.192-53.805-25.657-68.66-52.039-13.216-24.417-17.787-54.01-10.258-81.035 8.787-28.527 26.732-52.664 53.174-67.004 16.128-8.369 32.682-12.369 50.834-12.273z" fill="#f76b15"/></svg>